PathFileType	4	(X/Y/Z)	C:/Users/beibeiliu/ov580/test_trc/User2\sequence.31_training_dense_left.trc
DataRate	CameraRate	NumFrames	NumMarkers	Units	OrigDataRate	OrigDataStartFrame	OrigNumFrames
120	120	23	19	mm	120	306	349
Frame#	Time	ThumbCMC			ThumbMCP			ThumbIP			ThumbTip			IndexMCP			IndexPIP			IndexTip			MiddleMCP			MiddlePIP			MiddleTip			RingMCP			RingPIP			RingTip			PinkyMCP			PinkyPIP			PinkyTip			BackHand1			BackHand2			BackHand3	
		X0	Y0	Z0	X1	Y1	Z1	X2	Y2	Z2	X3	Y3	Z3	X4	Y4	Z4	X5	Y5	Z5	X6	Y6	Z6	X7	Y7	Z7	X8	Y8	Z8	X9	Y9	Z9	X10	Y10	Z10	X11	Y11	Z11	X12	Y12	Z12	X13	Y13	Z13	X14	Y14	Z14	X15	Y15	Z15	X16	Y16	Z16	X17	Y17	Z17	X18	Y18	Z18	
305	2.54167	-141.256	-50.3643	65.8163	-124.412	-70.1412	47.4606	-108.742	-87.8384	18.7796	-103.629	-104.062	-1.69392	-158.749	-29.3632	-12.3766	-159.706	-28.9042	-38.9469	-158.629	-35.029	-70.8422	-193.865	-29.8383	-12.3607	-194.932	-33.8426	-47.6643	-194.127	-54.5278	-79.3331	-213.363	-38.3217	-6.74039	-215.743	-51.0544	-35.7193	-199.565	-84.2987	-38.7414	-228.931	-54.4029	11.3561	-223.646	-70.6534	-20.3829	-207.644	-100.397	-15.1503	-209.581	-35.2895	50.2552	-210.095	-27.5682	77.3432	-174.161	-23.3118	61.9344	
306	2.55	-141.756	-51.9865	68.6827	-125.3	-74.0062	46.6955	-110.028	-93.6255	19.1655	-103.043	-110.144	3.83401	-163.886	-33.8857	-12.2727	-162.216	-34.6978	-42.963	-161.532	-40.7094	-69.5669	-194.637	-33.0088	-14.6652	-198.55	-39.3358	-48.8647	-198.723	-60.378	-80.2465	-215.843	-41.4251	-8.41442	-213.666	-59.0609	-37.2705	-205.321	-90.0702	-36.8118	-226.288	-56.4406	10.9874	-223.929	-76.6743	-17.9709	-212.394	-104.319	-11.1902	-208.939	-35.1445	47.7256	-208.318	-27.4998	77.6189	-176.863	-24.0187	59.0553	
307	2.55833	-137.984	-53.7758	68.5331	-120.34	-78.3747	51.2884	-111.408	-99.4851	25.4984	-106.258	-117.669	5.91644	-162.822	-38.512	-11.3403	-163.518	-41.4289	-40.9409	-164.618	-48.7008	-67.0296	-196.788	-39.5378	-15.0612	-201.908	-47.1374	-51.8133	-203.298	-66.1332	-77.649	-213.154	-45.8081	-8.16693	-214.434	-63.3633	-35.2265	-208.879	-96.0762	-35.6689	-230.108	-61.4616	10.1146	-227.116	-81.09	-15.7846	-212.929	-111.83	-7.69388	-210.62	-38.9976	49.7438	-206.334	-29.0221	76.2751	-172.556	-25.654	58.4845	
308	2.56667	-142.186	-59.5789	67.134	-123.429	-83.0832	53.9858	-109.737	-106.723	30.0604	-107.225	-125.313	14.0427	-162.495	-46.567	-10.333	-159.741	-49.2143	-41.0139	-163.544	-58.3754	-66.0341	-196.209	-44.9602	-12.9415	-200.065	-54.1497	-47.3277	-206.376	-72.4075	-73.8922	-216.608	-52.5016	-6.75424	-218.827	-68.8793	-33.1037	-206.872	-100.301	-35.0224	-232.155	-66.801	15.4773	-229.17	-89.6207	-13.4054	-216.727	-115.446	-8.55352	-208.529	-41.7881	50.2058	-209.479	-33.3707	78.8405	-176.953	-32.0107	58.0117	
309	2.575	-141.73	-59.8958	67.2568	-127.83	-83.9328	52.2285	-113.772	-108.23	28.3298	-109.371	-127.612	9.90251	-163.403	-47.899	-8.21755	-164.256	-52.64	-39.0765	-162.802	-60.8217	-65.6762	-193.343	-46.4347	-13.3888	-197.446	-55.2081	-45.3691	-205.929	-76.7356	-72.6253	-217.076	-54.3091	-2.5133	-215.26	-71.0615	-32.0582	-207.851	-107.698	-33.9034	-228.041	-66.9473	13.1992	-227.523	-88.3599	-12.0276	-213.004	-117.326	-6.01507	-213.487	-41.7371	50.4603	-208.488	-33.1657	82.3009	-177.317	-31.3682	56.2818	
310	2.58333	-142.092	-57.8169	68.1245	-124.202	-82.7378	52.118	-116.767	-105.274	31.5292	-109.881	-125.934	14.4525	-162.281	-46.9257	-8.49255	-164.486	-52.3055	-37.9549	-165.74	-62.5832	-64.5224	-194.093	-46.2937	-13.1661	-200.814	-55.8243	-45.9162	-203.586	-77.1267	-74.4252	-216.505	-53.4023	-2.35364	-216.536	-69.7378	-31.5352	-211.157	-106.696	-34.3955	-229.678	-65.9957	13.9247	-228.077	-89.2232	-11.3942	-213.898	-114.498	-6.69784	-214.336	-41.2786	51.3721	-205.822	-30.8424	79.5	-174.552	-31.1439	61.5695	
311	2.59167	-143.392	-56.5259	71.6428	-127.267	-81.6388	51.5119	-111.066	-104.619	31.1285	-111.774	-122.892	13.0757	-167.364	-46.444	-9.88185	-164.091	-51.2855	-37.4847	-161.039	-60.5042	-64.1044	-192.839	-44.8078	-12.0184	-202.11	-55.4521	-45.6223	-202.598	-77.6513	-74.5071	-215.124	-52.5443	-2.67536	-219.047	-69.901	-31.2298	-210.47	-103.63	-34.9908	-227.745	-64.6512	13.4545	-226.137	-85.2945	-11.6333	-216.886	-115.08	-7.49662	-213.869	-41.8206	51.3254	-205.772	-30.6996	83.1304	-173.813	-29.104	56.2117	
312	2.6	-139.001	-55.6646	67.7367	-126.266	-78.9898	50.9249	-113.527	-101.425	30.2411	-109.208	-121.257	10.5338	-164.468	-45.4069	-10.1527	-162.893	-52.1958	-40.3924	-164.704	-62.7639	-67.3621	-197.161	-45.0718	-11.68	-196.677	-55.5204	-48.7955	-201.299	-78.5759	-75.405	-216.286	-52.2113	-4.58383	-215.668	-68.4571	-31.1426	-205.576	-103.416	-33.097	-229.236	-64.3275	12.4656	-226.662	-86.1958	-11.7499	-218.297	-114.418	-11.1261	-212.371	-41.0394	49.3687	-208.658	-30.9297	82.5467	-174.959	-30.2137	60.5164	
313	2.60833	-138.493	-55.4514	71.1678	-125.453	-76.9942	53.8262	-111.541	-101.165	25.0869	-103.458	-118.474	10.3211	-164.092	-46.504	-8.1328	-165.365	-51.9907	-37.8885	-163.709	-63.2083	-66.4208	-192.124	-44.2145	-13.7252	-201.723	-55.4978	-47.4592	-201.026	-77.9389	-75.3342	-215.331	-51.7981	-6.20634	-220.096	-70.7685	-31.177	-207.05	-104.734	-33.1371	-228.663	-65.2833	16.607	-228.063	-84.0709	-13.085	-217.034	-113.521	-11.0222	-209.253	-38.8635	47.3449	-208.203	-28.2592	81.6884	-173.711	-29.497	58.1138	
314	2.61667	-140.661	-54.9122	70.4322	-124.809	-77.7696	50.5322	-108.28	-98.4486	29.3874	-104.314	-116.925	11.8578	-165.525	-47.377	-8.63609	-165.009	-53.5565	-39.4465	-162.371	-65.0429	-67.8681	-195.281	-46.0393	-12.5784	-198.684	-55.5443	-47.2189	-200.032	-78.0583	-74.4037	-218.15	-52.585	-3.33068	-215.1	-67.6328	-31.2696	-207.502	-102.013	-35.7025	-228.013	-63.9106	12.9416	-231.129	-81.8291	-12.2712	-220.274	-113.489	-14.928	-212.586	-41.5216	46.9109	-209.218	-30.4169	81.6173	-177.648	-30.9708	56.601	
315	2.625	-139.903	-55.4685	69.9493	-124.092	-77.2647	51.577	-109.443	-97.4224	29.6244	-99.491	-115.523	7.57215	-164.109	-48.3089	-14.7315	-161.022	-53.3648	-42.1122	-160.127	-64.9684	-68.0366	-193.253	-46.2343	-18.1693	-196.486	-56.4765	-50.9694	-201.668	-79.1195	-75.3239	-214.929	-52.8768	-5.70555	-216.284	-70.9828	-33.6231	-210.44	-103.671	-37.8404	-228.755	-64.4948	12.5847	-228.442	-84.4394	-14.7912	-218.237	-115.563	-13.9767	-208.238	-40.4782	48.5403	-209.556	-30.5934	79.3782	-176.801	-30.1244	57.5342	
316	2.63333	-141.843	-56.9848	68.6777	-125.332	-76.5432	48.5362	-105.289	-96.5547	24.6632	-102.288	-113.555	11.1779	-164.113	-48.4075	-8.84841	-164.584	-53.8337	-38.9462	-158.942	-66.4768	-69.6033	-192.042	-46.5247	-15.7427	-199.225	-57.5551	-48.458	-201.067	-81.0728	-77.0063	-217.1	-54.0267	-8.21973	-217.961	-69.7375	-34.0887	-212.888	-102.961	-40.9298	-232.881	-64.2393	10.1473	-231.679	-84.9194	-14.6755	-218.862	-111.899	-16.4988	-209.178	-40.6646	49.9995	-206.517	-29.5173	80.1988	-173.2	-29.8023	56.09	
317	2.64167	-138.074	-56.7262	68.9136	-122.879	-76.4277	52.3556	-105.265	-95.877	26.5307	-97.9907	-112.714	8.07642	-166.508	-48.8237	-12.5782	-164.3	-54.3487	-38.7012	-164.318	-68.0031	-69.3511	-195.688	-46.7478	-12.9844	-193.282	-57.3501	-49.6119	-201.218	-77.725	-74.0085	-217.048	-54.7949	-7.2906	-215.17	-67.989	-33.42	-210.642	-102.452	-43.6347	-231.229	-64.787	13.9556	-230.618	-84.178	-15.4965	-218.673	-114.833	-19.1658	-211.531	-39.9163	50.9078	-206.623	-32.4527	80.7611	-174.228	-32.9357	57.3286	
318	2.65	-138.504	-56.3815	69.1634	-122.563	-75.1793	52.5023	-106.052	-94.8342	25.1082	-101.254	-110.579	8.95233	-164.826	-48.8314	-13.207	-159.164	-54.2179	-39.1983	-162.516	-65.9353	-66.0033	-190.805	-47.1301	-18.393	-197.825	-56.9154	-48.3	-198.08	-78.3707	-75.8844	-212.54	-54.2017	-3.89786	-215.675	-68.6683	-35.0188	-209.638	-103.969	-46.1709	-231.944	-65.8501	14.3981	-228.801	-82.6551	-14.8968	-221.676	-110.317	-19.2589	-210.848	-41.6935	51.7437	-206.821	-33.5031	81.7147	-174.298	-30.6805	59.4311	
319	2.65833	-138.546	-57.469	66.4112	-120.485	-75.1443	51.7221	-104.111	-94.1606	24.0972	-101.288	-109.289	7.66526	-161.564	-48.5188	-13.4328	-162.623	-54.6513	-38.4299	-164.57	-68.3443	-67.4972	-195.181	-47.0933	-18.9157	-194.441	-57.3615	-52.1061	-197.391	-76.7826	-76.3186	-213.082	-54.4268	-7.44904	-215.685	-67.9905	-33.6736	-210.99	-100.889	-47.6307	-227.891	-66.1219	13.2207	-233.686	-83.0403	-15.0703	-221.803	-112.724	-23.1501	-210.666	-43.911	45.5828	-205.539	-33.2498	79.7621	-176.244	-31.5782	57.6976	
320	2.66667	-142.664	-57.1076	69.6556	-122.322	-75.1875	46.8953	-106.332	-92.8129	22.4512	-97.8727	-107.309	2.88887	-166.188	-49.8377	-10.1173	-160.464	-54.618	-39.8602	-159.165	-68.5416	-69.6594	-194.571	-48.5826	-15.1221	-193.966	-57.0934	-51.7511	-200.686	-77.8744	-77.1924	-214.417	-54.8951	-9.70758	-217.737	-69.719	-37.312	-210.886	-103.924	-49.8962	-231.118	-66.8679	13.1526	-229.311	-81.9811	-17.1551	-221.492	-113.753	-26.5217	-214	-42.9239	46.2621	-208.048	-33.083	78.6207	-175.239	-33.5295	59.7341	
321	2.675	-143.026	-57.3258	65.3689	-118.77	-74.4937	50.6239	-104.319	-90.6847	25.4009	-94.5831	-106.058	5.59876	-166.17	-50.8774	-14.9087	-159.529	-55.222	-38.9189	-160.943	-67.8421	-70.5913	-191.054	-47.496	-18.9067	-195.14	-56.1674	-47.567	-197.374	-76.4577	-77.9044	-212.124	-54.0192	-6.37253	-214.29	-68.2131	-37.312	-209.664	-98.983	-51.1403	-227.611	-67.4725	14.3394	-231.501	-82.8634	-18.0987	-221.049	-110.396	-30.0459	-211.564	-44.1916	47.8698	-205.936	-32.6201	79.2059	-176.072	-32.5292	57.826	
322	2.68333	-141.318	-57.5388	71.0017	-120.61	-73.8598	47.7343	-102.501	-89.7089	24.7913	-96.5142	-104.37	3.15365	-165.882	-50.4792	-15.6844	-163.132	-54.6589	-39.5625	-163.266	-66.8067	-66.8876	-189.147	-46.9809	-17.6666	-196.518	-55.2089	-47.9723	-194.517	-75.2432	-80.3952	-215.486	-54.6078	-6.64984	-216.339	-65.8466	-35.8432	-210.333	-93.6885	-51.4728	-228.073	-66.205	10.8085	-233.545	-81.6779	-18.5539	-222.46	-103.209	-30.5955	-207.754	-44.8143	48.857	-206.422	-35.54	78.477	-176.562	-35.3902	54.1534	
323	2.69167	-139.131	-57.254	67.4604	-121.419	-72.7937	50.6406	-106.767	-88.7022	26.3588	-96.5587	-102.979	6.24435	-164.934	-50.0363	-13.3638	-158.041	-53.6059	-38.5445	-160.278	-65.7907	-70.2451	-190.504	-47.5299	-16.8424	-192.505	-54.3827	-50.1405	-194.881	-73.9074	-81.5774	-212.543	-53.0923	-9.88956	-218.884	-64.4866	-36.2164	-214.25	-93.315	-56.0112	-228.608	-66.411	12.2014	-232.799	-77.6022	-18.5408	-226.065	-102.555	-35.9972	-213.185	-42.9738	50.5288	-207.122	-35.9778	76.409	-171.756	-34.5556	54.9454	
324	2.7	-140.281	-57.8825	67.7009	-123.968	-72.9411	49.8889	-104.196	-87.4845	23.0935	-95.1862	-101.373	6.96738	-166.001	-50.3777	-11.3205	-162.45	-54.2689	-40.5785	-160.055	-63.7711	-68.2693	-192.295	-47.4005	-14.3145	-196.942	-52.805	-47.7291	-199.125	-68.519	-77.4341	-211.873	-54.0759	-9.02341	-216.655	-62.0456	-35.6082	-215.737	-89.2206	-59.5835	-228.31	-66.5188	14.7148	-235.66	-77.1032	-18.2572	-225.966	-97.1802	-37.6147	-213.641	-43.3891	48.0821	-208.804	-35.5386	78.5389	-175.982	-33.8289	57.4894	
325	2.70833	-139.562	-57.1387	67.3654	-118.675	-71.3374	48.9452	-103.481	-85.604	20.6912	-94.321	-99.6966	4.92379	-165.862	-51.6644	-10.9049	-160.469	-54.972	-40.8465	-160.159	-62.4056	-67.5771	-192.417	-48.1527	-17.8143	-196.711	-53.3045	-48.3915	-196.263	-65.7368	-79.4849	-215.876	-54.6152	-5.91501	-220.915	-63.0451	-38.6746	-216.979	-83.0196	-61.3867	-229.841	-66.5089	13.4635	-235.07	-75.5921	-19.3496	-231.117	-93.9168	-40.1879	-211.365	-44.8857	45.995	-209.074	-37.3913	75.2853	-173.175	-36.5005	55.816	
326	2.71667	-143.594	-59.1772	68.5188	-119.75	-71.4549	48.7343	-104.892	-85.2366	26.5872	-92.8144	-98.0969	5.09991	-164.813	-51.751	-11.2545	-159.849	-54.2387	-43.5246	-157.346	-61.2561	-69.3934	-191.553	-49.0955	-15.7447	-197.28	-53.7624	-51.1534	-195.75	-61.1583	-78.2613	-213.665	-54.5782	-6.64278	-220.368	-61.8917	-35.1649	-217.482	-79.1741	-62.4182	-230.852	-67.2504	9.97154	-238.592	-75.5028	-18.0391	-236.109	-85.8912	-40.4245	-213.687	-45.2367	45.2056	-208.285	-34.9105	74.9833	-175.673	-36.3626	55.8818	
327	2.725	-142.712	-59.4973	67.8367	-118.576	-71.5383	51.5056	-103.635	-85.8982	22.9768	-90.7477	-97.2574	8.14974	-164.562	-52.3876	-9.7002	-162.705	-55.2275	-40.9438	-160.08	-59.5302	-66.5382	-190.654	-49.7763	-18.4477	-196.936	-53.8664	-50.525	-199.155	-59.7674	-79.8326	-216.424	-56.2032	-8.52665	-221.553	-60.3834	-34.9453	-221.347	-75.9474	-65.3581	-230.412	-67.8012	11.3075	-240.933	-73.7935	-13.0543	-241.063	-85.2478	-41.0754	-212.445	-46.5802	47.714	-207.266	-36.7245	78.3916	-175.403	-37.3811	55.2516	
